HIERARCHY
ROOT joint_Root
{
	OFFSET 0.0 0.0 0.0
	CHANNELS 6 Xposition Yposition Zposition Zrotation Xrotation Yrotation 
	JOINT Hips
	{
		OFFSET 4.5925 91.4895 -427.239
		CHANNELS 6 Xposition Yposition Zposition Zrotation Xrotation Yrotation 
		JOINT Spine
		{
			OFFSET 15.7357 0.0 0.0
			CHANNELS 6 Xposition Yposition Zposition Zrotation Xrotation Yrotation 
			JOINT Chest
			{
				OFFSET 8.98455 -0.406207 0.0
				CHANNELS 6 Xposition Yposition Zposition Zrotation Xrotation Yrotation 
				JOINT Neck
				{
					OFFSET 16.3773 0.0 0.0
					CHANNELS 6 Xposition Yposition Zposition Zrotation Xrotation Yrotation 
					JOINT Head
					{
						OFFSET 6.45672 0.0 0.0
						CHANNELS 6 Xposition Yposition Zposition Zrotation Xrotation Yrotation 
						End Site
						{
							OFFSET 0.0 0.0 0.0
						}
					}
				}
				JOINT Shoulder_L
				{
					OFFSET 12.9942 -0.242716 4.98039
					CHANNELS 6 Xposition Yposition Zposition Zrotation Xrotation Yrotation 
					JOINT UpperArm_L
					{
						OFFSET 5.34809 0.0 0.0
						CHANNELS 6 Xposition Yposition Zposition Zrotation Xrotation Yrotation 
						JOINT LowerArm_L
						{
							OFFSET 24.3286 1.87007e-05 0.0
							CHANNELS 6 Xposition Yposition Zposition Zrotation Xrotation Yrotation 
							JOINT Hand_L
							{
								OFFSET 22.2916 0.0 0.0
								CHANNELS 6 Xposition Yposition Zposition Zrotation Xrotation Yrotation 
								End Site
								{
									OFFSET 0.0 0.0 0.0
								}
							}
						}
					}
				}
				JOINT Shoulder_R
				{
					OFFSET 12.9945 -0.242716 -4.98039
					CHANNELS 6 Xposition Yposition Zposition Zrotation Xrotation Yrotation 
					JOINT UpperArm_R
					{
						OFFSET -5.34813 0.0 0.0
						CHANNELS 6 Xposition Yposition Zposition Zrotation Xrotation Yrotation 
						JOINT LowerArm_R
						{
							OFFSET -24.3289 0.000322201 0.0
							CHANNELS 6 Xposition Yposition Zposition Zrotation Xrotation Yrotation 
							JOINT Hand_R
							{
								OFFSET -22.2915 -0.000108084 0.0
								CHANNELS 6 Xposition Yposition Zposition Zrotation Xrotation Yrotation 
								End Site
								{
									OFFSET 0.0 0.0 0.0
								}
							}
						}
					}
				}
			}
		}
		JOINT UpperLeg_L
		{
			OFFSET -2.19248 -6.46944 0.0
			CHANNELS 6 Xposition Yposition Zposition Zrotation Xrotation Yrotation 
			JOINT LowerLeg_L
			{
				OFFSET 39.0811 0.0 -1.23785e-05
				CHANNELS 6 Xposition Yposition Zposition Zrotation Xrotation Yrotation 
				JOINT Foot_L
				{
					OFFSET 40.9854 0.0 -1.26872e-05
					CHANNELS 6 Xposition Yposition Zposition Zrotation Xrotation Yrotation 
					JOINT Toes_L
					{
						OFFSET 11.7543 0.0 0.0
						CHANNELS 6 Xposition Yposition Zposition Zrotation Xrotation Yrotation 
						End Site
						{
							OFFSET 0.0 0.0 0.0
						}
					}
				}
			}
		}
		JOINT UpperLeg_R
		{
			OFFSET -2.19251 6.46944 0.0
			CHANNELS 6 Xposition Yposition Zposition Zrotation Xrotation Yrotation 
			JOINT LowerLeg_R
			{
				OFFSET -39.0811 -0.00228153 -0.0401928
				CHANNELS 6 Xposition Yposition Zposition Zrotation Xrotation Yrotation 
				JOINT Foot_R
				{
					OFFSET -40.9854 0.0 0.0
					CHANNELS 6 Xposition Yposition Zposition Zrotation Xrotation Yrotation 
					JOINT Toes_R
					{
						OFFSET -11.7543 0.0 0.0
						CHANNELS 6 Xposition Yposition Zposition Zrotation Xrotation Yrotation 
						End Site
						{
							OFFSET 0.0 0.0 0.0
						}
					}
				}
			}
		}
	}
}
MOTION
Frames:	6
Frame Time:	0.0333333
0.000000 0.000000 0.000000 0.000000 0.000000 -0.000000 -7.450280 85.378600 49.745500 -90.417700 6.905620 -176.878000 15.735700 0.000005 -0.000001 93.563300 82.813400 -95.096900 8.984550 -0.406207 -0.000000 6.594010 0.906188 -3.116090 16.377300 -0.000001 -0.000001 2.823290 -3.689070 -0.366773 6.456720 -0.000001 -0.000000 0.123616 -5.540350 4.664490 12.994200 -0.242716 4.980390 -90.967600 2.454650 -68.485400 5.348090 -0.000007 -0.000001 -62.927500 31.578700 -32.009900 24.328600 0.000019 0.000005 3.856750 -0.621953 -99.134800 22.291600 -0.000001 0.000005 4.892090 5.511800 -7.031130 12.994500 -0.242716 -4.980390 87.767500 9.671020 -76.928700 -5.348130 -0.000001 -0.000004 -65.990600 32.267400 17.479200 -24.328900 0.000322 -0.000009 -26.902200 -9.866710 -71.340000 -22.291500 -0.000108 -0.000004 16.649300 5.673400 -17.904000 -2.192480 -6.469440 -0.000000 179.294000 -4.446870 -18.644000 39.081100 -0.000007 -0.000012 -0.427043 0.327206 52.541200 40.985400 -0.000006 -0.000013 0.493482 -2.368460 -81.244700 11.754300 -0.000000 0.000003 -0.000256 -0.002277 -16.662800 -2.192510 6.469440 -0.000001 171.447000 7.970730 170.975000 -39.081100 -0.002282 -0.040193 0.252946 -0.076955 72.882600 -40.985400 0.000008 0.000006 9.021840 3.069370 -38.126900 -11.754300 -0.000006 -0.000006 -0.024104 -0.189044 -24.305400
0.000000 0.000000 0.000000 0.000000 0.000000 -0.000000 -6.891060 87.651400 44.493500 -88.870300 5.076340 -176.213000 15.735700 0.000005 -0.000001 75.287800 82.530900 -75.920700 8.984550 -0.406207 -0.000000 6.673000 -3.775700 -1.044420 16.377300 -0.000001 -0.000001 3.731760 -2.225310 -0.934118 6.456720 -0.000001 -0.000000 0.061099 -0.749301 2.366490 12.994200 -0.242716 4.980390 -89.804300 -0.516262 -69.204800 5.348090 -0.000007 -0.000001 -58.093600 29.903000 -41.199300 24.328600 0.000019 0.000005 3.965250 -1.225220 -107.157000 22.291600 -0.000001 0.000005 4.218320 5.488430 -6.071090 12.994500 -0.242716 -4.980390 88.230900 6.390540 -74.482100 -5.348130 -0.000001 -0.000004 -65.251600 37.592300 24.002500 -24.328900 0.000322 -0.000009 -24.136400 -6.199990 -76.456700 -22.291500 -0.000108 -0.000004 14.605400 5.667230 -16.937500 -2.192480 -6.469440 -0.000000 -178.671000 -3.543210 -9.055470 39.081100 -0.000007 -0.000012 -0.338860 0.364632 42.902700 40.985400 -0.000006 -0.000013 0.653698 -1.114500 -80.349900 11.754300 -0.000000 0.000003 -0.000173 -0.001642 -16.639700 -2.192510 6.469440 -0.000001 175.259000 8.322450 166.584000 -39.081100 -0.002282 -0.040193 0.193223 -0.060665 72.304800 -40.985400 0.000008 0.000006 7.289390 -1.739960 -45.307500 -11.754300 -0.000006 -0.000006 -0.023299 -0.184921 -24.135100
0.000000 0.000000 0.000000 0.000000 0.000000 -0.000000 -6.261130 89.763000 39.949700 -86.973900 4.113900 -178.156000 15.735700 0.000005 -0.000001 60.756800 82.520600 -60.318500 8.984550 -0.406207 -0.000000 5.348850 -7.300770 1.218060 16.377300 -0.000001 -0.000001 4.365330 -1.187410 -1.112480 6.456720 -0.000001 -0.000000 0.690738 2.728680 1.084450 12.994200 -0.242716 4.980390 -88.631200 -3.638100 -69.363800 5.348090 -0.000007 -0.000001 -53.636000 26.506100 -47.602700 24.328600 0.000019 0.000005 3.502610 -1.508200 -113.274000 22.291600 -0.000001 0.000005 2.921820 5.477040 -5.633050 12.994500 -0.242716 -4.980390 89.152700 2.664670 -72.329000 -5.348130 -0.000001 -0.000004 -64.132800 41.178800 28.598700 -24.328900 0.000322 -0.000009 -20.905100 -3.294880 -81.446400 -22.291500 -0.000108 -0.000004 13.657300 5.663070 -16.422500 -2.192480 -6.469440 -0.000000 -176.911000 -2.535090 -2.688000 39.081100 -0.000007 -0.000012 0.029294 -0.045774 32.617100 40.985400 -0.000006 -0.000013 3.591670 -1.650810 -76.881100 11.754300 -0.000000 0.000003 -1.480330 -1.864730 -16.834300 -2.192510 6.469440 -0.000001 -179.826000 8.054610 160.020000 -39.081100 -0.002282 -0.040193 0.110061 -0.043704 67.768000 -40.985400 0.000008 0.000006 8.613200 -5.231340 -51.579000 -11.754300 -0.000006 -0.000006 -0.023713 -0.187047 -24.222900
0.000000 0.000000 0.000000 0.000000 0.000000 -0.000000 -5.759550 91.308600 35.901900 -85.950900 3.722160 179.032000 15.735700 0.000005 -0.000001 49.530400 82.604000 -48.309100 8.984550 -0.406207 -0.000000 3.634560 -9.632700 2.750830 16.377300 -0.000001 -0.000001 4.873430 -0.462588 -0.534214 6.456720 -0.000001 -0.000000 1.127840 5.046660 0.597495 12.994200 -0.242716 4.980390 -87.478300 -6.683470 -69.273100 5.348090 -0.000007 -0.000001 -50.734000 22.838000 -51.800400 24.328600 0.000019 0.000005 2.408370 -1.247590 -117.380000 22.291600 -0.000001 0.000005 2.812840 5.468580 -5.317660 12.994500 -0.242716 -4.980390 90.449300 -1.271170 -70.556600 -5.348130 -0.000001 -0.000004 -63.547900 42.129000 31.804700 -24.328900 0.000322 -0.000009 -18.650400 -1.633320 -85.174800 -22.291500 -0.000108 -0.000004 13.684200 5.660130 -16.073400 -2.192480 -6.469440 -0.000000 -175.451000 -3.025080 -0.349422 39.081100 -0.000007 -0.000012 0.009653 -0.019220 26.666600 40.985400 -0.000006 -0.000013 3.204590 -0.221856 -70.796600 11.754300 -0.000000 0.000003 -0.880542 -1.050560 -19.369700 -2.192510 6.469440 -0.000001 -176.355000 6.804170 153.484000 -39.081100 -0.002282 -0.040193 0.053981 -0.029700 59.677300 -40.985400 0.000008 0.000006 8.406940 -6.159070 -55.635800 -11.754300 -0.000006 -0.000006 -0.024007 -0.188548 -24.284900
0.000000 0.000000 0.000000 0.000000 0.000000 -0.000000 -5.384230 91.961100 31.823700 -85.443000 3.317240 177.311000 15.735700 0.000005 -0.000001 42.243200 82.263800 -40.515100 8.984550 -0.406207 -0.000000 2.864230 -11.517700 3.750400 16.377300 -0.000001 -0.000001 5.313260 0.184668 0.340277 6.456720 -0.000001 -0.000000 1.050330 6.726440 0.824700 12.994200 -0.242716 4.980390 -86.380400 -9.415980 -68.861400 5.348090 -0.000007 -0.000001 -48.586600 19.278500 -54.460700 24.328600 0.000019 0.000005 1.926000 -1.111940 -119.993000 22.291600 -0.000001 0.000005 3.408850 5.461810 -5.066820 12.994500 -0.242716 -4.980390 91.864900 -5.019620 -69.591200 -5.348130 -0.000001 -0.000004 -64.120400 40.686700 33.926300 -24.328900 0.000322 -0.000009 -16.473000 -0.737054 -87.509500 -22.291500 -0.000108 -0.000004 14.044200 5.656840 -15.713500 -2.192480 -6.469440 -0.000000 -173.949000 -5.953270 1.596120 39.081100 -0.000007 -0.000012 0.004516 -0.010164 23.953400 40.985400 -0.000006 -0.000013 3.584920 3.374090 -67.190500 11.754300 -0.000000 0.000003 -0.013961 -0.131187 -21.927700 -2.192510 6.469440 -0.000001 -174.234000 6.950760 149.603000 -39.081100 -0.002282 -0.040193 0.037164 -0.029921 48.576900 -40.985400 0.000008 0.000006 6.805880 -3.133720 -57.964800 -11.754300 -0.000006 -0.000006 -0.025164 -0.194376 -24.525700
0.000000 0.000000 0.000000 0.000000 0.000000 -0.000000 -5.205170 91.673400 27.566500 -85.958500 2.909620 176.655000 15.735700 0.000005 -0.000001 38.204000 81.628000 -36.386700 8.984550 -0.406207 -0.000000 2.871570 -13.223700 3.976300 16.377300 -0.000001 -0.000001 5.254500 0.625053 1.239850 6.456720 -0.000001 -0.000000 0.580669 8.212620 1.300480 12.994200 -0.242716 4.980390 -85.327300 -11.542100 -67.781500 5.348090 -0.000007 -0.000001 -46.691600 16.149900 -56.284100 24.328600 0.000019 0.000005 1.636190 -1.003930 -121.530000 22.291600 -0.000001 0.000005 3.545120 5.457480 -4.909240 12.994500 -0.242716 -4.980390 93.085000 -8.021700 -68.883700 -5.348130 -0.000001 -0.000004 -64.919800 39.110300 34.736100 -24.328900 0.000322 -0.000009 -15.314000 -0.088295 -89.677500 -22.291500 -0.000108 -0.000004 14.374100 5.651240 -15.137100 -2.192480 -6.469440 -0.000000 -173.226000 -8.935130 3.729170 39.081100 -0.000007 -0.000012 -0.001528 0.003508 23.531600 40.985400 -0.000006 -0.000013 3.759540 7.300940 -65.506900 11.754300 -0.000000 0.000003 -0.027242 -0.204547 -24.950400 -2.192510 6.469440 -0.000001 -173.105000 9.733870 147.514000 -39.081100 -0.002282 -0.040193 0.017044 -0.018552 36.557000 -40.985400 0.000008 0.000006 3.300040 4.244200 -59.198100 -11.754300 -0.000006 -0.000006 -0.026892 -0.202851 -24.876400
